<mxfile host="app.diagrams.net" agent="Mozilla/5.0 (X11; Linux x86_64; rv:135.0) Gecko/20100101 Firefox/135.0" version="26.0.15">
  <diagram name="Page-1" id="10a91c8b-09ff-31b1-d368-03940ed4cc9e">
    <mxGraphModel dx="2055" dy="1316" grid="1" gridSize="10" guides="1" tooltips="1" connect="1" arrows="1" fold="1" page="1" pageScale="1" pageWidth="1100" pageHeight="850" background="none" math="0" shadow="0">
      <root>
        <mxCell id="0" />
        <mxCell id="1" parent="0" />
        <mxCell id="qVPcfMORzEuoZqkbXC9u-35" style="edgeStyle=orthogonalEdgeStyle;rounded=0;orthogonalLoop=1;jettySize=auto;html=1;dashed=1;" parent="1" source="62893188c0fa7362-1" target="qVPcfMORzEuoZqkbXC9u-12" edge="1">
          <mxGeometry relative="1" as="geometry" />
        </mxCell>
        <mxCell id="62893188c0fa7362-1" value="Start Activity" style="whiteSpace=wrap;html=1;rounded=0;shadow=1;labelBackgroundColor=none;strokeWidth=2;fontFamily=Verdana;fontSize=12;align=center;fillColor=#fff2cc;strokeColor=#d6b656;" parent="1" vertex="1">
          <mxGeometry x="20" y="150" width="120" height="60" as="geometry" />
        </mxCell>
        <mxCell id="qVPcfMORzEuoZqkbXC9u-13" style="rounded=0;orthogonalLoop=1;jettySize=auto;html=1;endArrow=none;startFill=0;" parent="1" source="62893188c0fa7362-8" target="qVPcfMORzEuoZqkbXC9u-12" edge="1">
          <mxGeometry relative="1" as="geometry" />
        </mxCell>
        <mxCell id="qVPcfMORzEuoZqkbXC9u-14" style="rounded=0;orthogonalLoop=1;jettySize=auto;html=1;endArrow=none;startFill=0;" parent="1" source="62893188c0fa7362-8" target="62893188c0fa7362-1" edge="1">
          <mxGeometry relative="1" as="geometry" />
        </mxCell>
        <mxCell id="qVPcfMORzEuoZqkbXC9u-15" style="rounded=0;orthogonalLoop=1;jettySize=auto;html=1;entryX=0.5;entryY=0;entryDx=0;entryDy=0;endArrow=none;startFill=0;" parent="1" source="62893188c0fa7362-8" target="qVPcfMORzEuoZqkbXC9u-1" edge="1">
          <mxGeometry relative="1" as="geometry" />
        </mxCell>
        <mxCell id="qVPcfMORzEuoZqkbXC9u-16" style="rounded=0;orthogonalLoop=1;jettySize=auto;html=1;endArrow=none;startFill=0;" parent="1" source="62893188c0fa7362-8" target="62893188c0fa7362-9" edge="1">
          <mxGeometry relative="1" as="geometry" />
        </mxCell>
        <mxCell id="62893188c0fa7362-8" value="&lt;div&gt;Root&lt;/div&gt;&lt;div&gt;&lt;br&gt;&lt;/div&gt;" style="whiteSpace=wrap;html=1;rounded=1;shadow=1;labelBackgroundColor=none;strokeWidth=1;fontFamily=Verdana;fontSize=12;align=center;fillColor=#fff2cc;strokeColor=#d6b656;" parent="1" vertex="1">
          <mxGeometry x="300" y="60" width="120" height="60" as="geometry" />
        </mxCell>
        <mxCell id="qVPcfMORzEuoZqkbXC9u-18" style="rounded=0;orthogonalLoop=1;jettySize=auto;html=1;endArrow=none;startFill=0;" parent="1" source="62893188c0fa7362-9" target="62893188c0fa7362-12" edge="1">
          <mxGeometry relative="1" as="geometry" />
        </mxCell>
        <mxCell id="qVPcfMORzEuoZqkbXC9u-19" style="rounded=0;orthogonalLoop=1;jettySize=auto;html=1;endArrow=none;startFill=0;" parent="1" source="62893188c0fa7362-9" target="62893188c0fa7362-13" edge="1">
          <mxGeometry relative="1" as="geometry" />
        </mxCell>
        <mxCell id="qVPcfMORzEuoZqkbXC9u-42" style="edgeStyle=orthogonalEdgeStyle;rounded=0;orthogonalLoop=1;jettySize=auto;html=1;dashed=1;" parent="1" source="62893188c0fa7362-9" edge="1">
          <mxGeometry relative="1" as="geometry">
            <mxPoint x="700" y="180" as="targetPoint" />
          </mxGeometry>
        </mxCell>
        <mxCell id="62893188c0fa7362-9" value="Exclusive Choice E" style="whiteSpace=wrap;html=1;rounded=1;shadow=1;labelBackgroundColor=none;strokeWidth=1;fontFamily=Verdana;fontSize=12;align=center;fillColor=#dae8fc;strokeColor=#6c8ebf;" parent="1" vertex="1">
          <mxGeometry x="540" y="150" width="120" height="60" as="geometry" />
        </mxCell>
        <mxCell id="qVPcfMORzEuoZqkbXC9u-23" style="rounded=0;orthogonalLoop=1;jettySize=auto;html=1;endArrow=none;startFill=0;" parent="1" source="62893188c0fa7362-12" target="qVPcfMORzEuoZqkbXC9u-22" edge="1">
          <mxGeometry relative="1" as="geometry" />
        </mxCell>
        <mxCell id="62893188c0fa7362-12" value="Condition: Donor consented" style="whiteSpace=wrap;html=1;rounded=1;shadow=1;labelBackgroundColor=none;strokeWidth=1;fontFamily=Verdana;fontSize=12;align=center;" parent="1" vertex="1">
          <mxGeometry x="330" y="230" width="120" height="60" as="geometry" />
        </mxCell>
        <mxCell id="qVPcfMORzEuoZqkbXC9u-21" style="rounded=0;orthogonalLoop=1;jettySize=auto;html=1;endArrow=none;startFill=0;" parent="1" source="62893188c0fa7362-13" target="qVPcfMORzEuoZqkbXC9u-20" edge="1">
          <mxGeometry relative="1" as="geometry" />
        </mxCell>
        <mxCell id="62893188c0fa7362-13" value="Condition: Donor did not consent" style="whiteSpace=wrap;html=1;rounded=1;shadow=1;labelBackgroundColor=none;strokeWidth=1;fontFamily=Verdana;fontSize=12;align=center;" parent="1" vertex="1">
          <mxGeometry x="490" y="230" width="120" height="60" as="geometry" />
        </mxCell>
        <mxCell id="qVPcfMORzEuoZqkbXC9u-31" style="rounded=0;orthogonalLoop=1;jettySize=auto;html=1;endArrow=none;startFill=0;" parent="1" source="62893188c0fa7362-21" target="qVPcfMORzEuoZqkbXC9u-24" edge="1">
          <mxGeometry relative="1" as="geometry" />
        </mxCell>
        <mxCell id="qVPcfMORzEuoZqkbXC9u-39" style="edgeStyle=orthogonalEdgeStyle;rounded=0;orthogonalLoop=1;jettySize=auto;html=1;dashed=1;" parent="1" source="62893188c0fa7362-21" target="qVPcfMORzEuoZqkbXC9u-30" edge="1">
          <mxGeometry relative="1" as="geometry" />
        </mxCell>
        <mxCell id="62893188c0fa7362-21" value="retract consent" style="whiteSpace=wrap;html=1;rounded=0;shadow=1;labelBackgroundColor=none;strokeWidth=2;fontFamily=Verdana;fontSize=12;align=center;fillColor=#dae8fc;strokeColor=#6c8ebf;" parent="1" vertex="1">
          <mxGeometry x="160" y="480" width="120" height="60" as="geometry" />
        </mxCell>
        <mxCell id="qVPcfMORzEuoZqkbXC9u-40" style="edgeStyle=orthogonalEdgeStyle;rounded=0;orthogonalLoop=1;jettySize=auto;html=1;dashed=1;" parent="1" source="62893188c0fa7362-23" target="qVPcfMORzEuoZqkbXC9u-33" edge="1">
          <mxGeometry relative="1" as="geometry" />
        </mxCell>
        <mxCell id="62893188c0fa7362-23" value="conduct questionnaire" style="whiteSpace=wrap;html=1;rounded=0;shadow=1;labelBackgroundColor=none;strokeWidth=2;fontFamily=Verdana;fontSize=12;align=center;fillColor=#e1d5e7;strokeColor=#9673a6;" parent="1" vertex="1">
          <mxGeometry x="460" y="480" width="120" height="60" as="geometry" />
        </mxCell>
        <mxCell id="qVPcfMORzEuoZqkbXC9u-37" style="edgeStyle=orthogonalEdgeStyle;rounded=0;orthogonalLoop=1;jettySize=auto;html=1;dashed=1;" parent="1" source="qVPcfMORzEuoZqkbXC9u-1" target="62893188c0fa7362-9" edge="1">
          <mxGeometry relative="1" as="geometry" />
        </mxCell>
        <mxCell id="qVPcfMORzEuoZqkbXC9u-1" value="obtain consent" style="whiteSpace=wrap;html=1;rounded=0;shadow=1;labelBackgroundColor=none;strokeWidth=2;fontFamily=Verdana;fontSize=12;align=center;fillColor=#fff2cc;strokeColor=#d6b656;" parent="1" vertex="1">
          <mxGeometry x="380" y="150" width="120" height="60" as="geometry" />
        </mxCell>
        <mxCell id="qVPcfMORzEuoZqkbXC9u-36" style="edgeStyle=orthogonalEdgeStyle;rounded=0;orthogonalLoop=1;jettySize=auto;html=1;dashed=1;" parent="1" source="qVPcfMORzEuoZqkbXC9u-12" target="qVPcfMORzEuoZqkbXC9u-1" edge="1">
          <mxGeometry relative="1" as="geometry" />
        </mxCell>
        <mxCell id="qVPcfMORzEuoZqkbXC9u-12" value="provide information" style="whiteSpace=wrap;html=1;rounded=0;shadow=1;labelBackgroundColor=none;strokeWidth=2;fontFamily=Verdana;fontSize=12;align=center;fillColor=#fff2cc;strokeColor=#d6b656;" parent="1" vertex="1">
          <mxGeometry x="200" y="150" width="120" height="60" as="geometry" />
        </mxCell>
        <mxCell id="qVPcfMORzEuoZqkbXC9u-20" value="Terminate T1" style="whiteSpace=wrap;html=1;rounded=0;shadow=1;labelBackgroundColor=none;strokeWidth=2;fontFamily=Verdana;fontSize=12;align=center;fillColor=#dae8fc;strokeColor=#6c8ebf;" parent="1" vertex="1">
          <mxGeometry x="490" y="310" width="120" height="60" as="geometry" />
        </mxCell>
        <mxCell id="qVPcfMORzEuoZqkbXC9u-26" style="rounded=0;orthogonalLoop=1;jettySize=auto;html=1;endArrow=none;startFill=0;" parent="1" source="qVPcfMORzEuoZqkbXC9u-22" target="qVPcfMORzEuoZqkbXC9u-25" edge="1">
          <mxGeometry relative="1" as="geometry" />
        </mxCell>
        <mxCell id="qVPcfMORzEuoZqkbXC9u-27" style="rounded=0;orthogonalLoop=1;jettySize=auto;html=1;endArrow=none;startFill=0;" parent="1" source="qVPcfMORzEuoZqkbXC9u-22" target="qVPcfMORzEuoZqkbXC9u-24" edge="1">
          <mxGeometry relative="1" as="geometry" />
        </mxCell>
        <mxCell id="qVPcfMORzEuoZqkbXC9u-22" value="parallel P" style="whiteSpace=wrap;html=1;rounded=1;shadow=1;labelBackgroundColor=none;strokeWidth=1;fontFamily=Verdana;fontSize=12;align=center;" parent="1" vertex="1">
          <mxGeometry x="330" y="310" width="120" height="60" as="geometry" />
        </mxCell>
        <mxCell id="qVPcfMORzEuoZqkbXC9u-24" value="Branch A" style="whiteSpace=wrap;html=1;rounded=1;shadow=1;labelBackgroundColor=none;strokeWidth=1;fontFamily=Verdana;fontSize=12;align=center;" parent="1" vertex="1">
          <mxGeometry x="250" y="390" width="120" height="60" as="geometry" />
        </mxCell>
        <mxCell id="qVPcfMORzEuoZqkbXC9u-32" style="rounded=0;orthogonalLoop=1;jettySize=auto;html=1;endArrow=none;startFill=0;" parent="1" source="qVPcfMORzEuoZqkbXC9u-25" target="62893188c0fa7362-23" edge="1">
          <mxGeometry relative="1" as="geometry" />
        </mxCell>
        <mxCell id="qVPcfMORzEuoZqkbXC9u-34" style="rounded=0;orthogonalLoop=1;jettySize=auto;html=1;endArrow=none;startFill=0;" parent="1" source="qVPcfMORzEuoZqkbXC9u-25" target="qVPcfMORzEuoZqkbXC9u-33" edge="1">
          <mxGeometry relative="1" as="geometry" />
        </mxCell>
        <mxCell id="qVPcfMORzEuoZqkbXC9u-25" value="Branch B" style="whiteSpace=wrap;html=1;rounded=1;shadow=1;labelBackgroundColor=none;strokeWidth=1;fontFamily=Verdana;fontSize=12;align=center;fillColor=#e1d5e7;strokeColor=#9673a6;" parent="1" vertex="1">
          <mxGeometry x="410" y="390" width="120" height="60" as="geometry" />
        </mxCell>
        <mxCell id="qVPcfMORzEuoZqkbXC9u-29" style="rounded=0;orthogonalLoop=1;jettySize=auto;html=1;endArrow=none;startFill=0;" parent="1" source="qVPcfMORzEuoZqkbXC9u-24" target="qVPcfMORzEuoZqkbXC9u-30" edge="1">
          <mxGeometry relative="1" as="geometry">
            <mxPoint x="390" y="450" as="sourcePoint" />
          </mxGeometry>
        </mxCell>
        <mxCell id="qVPcfMORzEuoZqkbXC9u-30" value="Terminate T2" style="whiteSpace=wrap;html=1;rounded=0;shadow=1;labelBackgroundColor=none;strokeWidth=2;fontFamily=Verdana;fontSize=12;align=center;glass=0;fillColor=#fff2cc;strokeColor=#d6b656;" parent="1" vertex="1">
          <mxGeometry x="310" y="480" width="120" height="60" as="geometry" />
        </mxCell>
        <mxCell id="qVPcfMORzEuoZqkbXC9u-41" style="edgeStyle=orthogonalEdgeStyle;rounded=0;orthogonalLoop=1;jettySize=auto;html=1;dashed=1;" parent="1" source="qVPcfMORzEuoZqkbXC9u-33" edge="1">
          <mxGeometry relative="1" as="geometry">
            <mxPoint x="760" y="510" as="targetPoint" />
          </mxGeometry>
        </mxCell>
        <mxCell id="qVPcfMORzEuoZqkbXC9u-33" value="direct questions" style="whiteSpace=wrap;html=1;rounded=0;shadow=1;labelBackgroundColor=none;strokeWidth=2;fontFamily=Verdana;fontSize=12;align=center;fillColor=#e1d5e7;strokeColor=#9673a6;" parent="1" vertex="1">
          <mxGeometry x="610" y="480" width="120" height="60" as="geometry" />
        </mxCell>
        <mxCell id="Grk_tpBVNd8rtP147zdG-24" style="rounded=0;orthogonalLoop=1;jettySize=auto;html=1;endArrow=none;startFill=0;fillColor=#cce5ff;strokeColor=#36393d;" edge="1" parent="1" source="Grk_tpBVNd8rtP147zdG-1" target="Grk_tpBVNd8rtP147zdG-2">
          <mxGeometry relative="1" as="geometry" />
        </mxCell>
        <mxCell id="Grk_tpBVNd8rtP147zdG-72" style="rounded=0;orthogonalLoop=1;jettySize=auto;html=1;endArrow=none;startFill=0;" edge="1" parent="1" source="Grk_tpBVNd8rtP147zdG-1" target="Grk_tpBVNd8rtP147zdG-3">
          <mxGeometry relative="1" as="geometry" />
        </mxCell>
        <mxCell id="Grk_tpBVNd8rtP147zdG-1" value="and" style="rounded=0;whiteSpace=wrap;html=1;fillColor=#f8cecc;strokeColor=#b85450;" vertex="1" parent="1">
          <mxGeometry x="990" y="50" width="120" height="40" as="geometry" />
        </mxCell>
        <mxCell id="Grk_tpBVNd8rtP147zdG-25" style="rounded=0;orthogonalLoop=1;jettySize=auto;html=1;endArrow=none;startFill=0;" edge="1" parent="1" source="Grk_tpBVNd8rtP147zdG-2" target="Grk_tpBVNd8rtP147zdG-5">
          <mxGeometry relative="1" as="geometry" />
        </mxCell>
        <mxCell id="Grk_tpBVNd8rtP147zdG-2" value="precedence" style="rounded=0;whiteSpace=wrap;html=1;fillColor=#ffe6cc;strokeColor=#d79b00;" vertex="1" parent="1">
          <mxGeometry x="900" y="100" width="120" height="40" as="geometry" />
        </mxCell>
        <mxCell id="Grk_tpBVNd8rtP147zdG-78" style="rounded=0;orthogonalLoop=1;jettySize=auto;html=1;entryX=0;entryY=0.5;entryDx=0;entryDy=0;dashed=1;dashPattern=8 8;" edge="1" parent="1" source="Grk_tpBVNd8rtP147zdG-3" target="Grk_tpBVNd8rtP147zdG-79">
          <mxGeometry relative="1" as="geometry">
            <mxPoint x="1240" y="170" as="targetPoint" />
          </mxGeometry>
        </mxCell>
        <mxCell id="Grk_tpBVNd8rtP147zdG-3" value="data condition directly leads to" style="rounded=0;whiteSpace=wrap;html=1;fillColor=#ffe6cc;strokeColor=#d79b00;" vertex="1" parent="1">
          <mxGeometry x="1080" y="100" width="120" height="40" as="geometry" />
        </mxCell>
        <mxCell id="Grk_tpBVNd8rtP147zdG-29" style="rounded=0;orthogonalLoop=1;jettySize=auto;html=1;endArrow=none;startFill=0;" edge="1" parent="1" source="Grk_tpBVNd8rtP147zdG-4" target="Grk_tpBVNd8rtP147zdG-8">
          <mxGeometry relative="1" as="geometry" />
        </mxCell>
        <mxCell id="Grk_tpBVNd8rtP147zdG-30" style="rounded=0;orthogonalLoop=1;jettySize=auto;html=1;endArrow=none;startFill=0;" edge="1" parent="1" source="Grk_tpBVNd8rtP147zdG-4" target="Grk_tpBVNd8rtP147zdG-10">
          <mxGeometry relative="1" as="geometry" />
        </mxCell>
        <mxCell id="Grk_tpBVNd8rtP147zdG-4" value="condition: equals" style="rounded=0;whiteSpace=wrap;html=1;fillColor=#f8cecc;strokeColor=#b85450;" vertex="1" parent="1">
          <mxGeometry x="700" y="200" width="120" height="40" as="geometry" />
        </mxCell>
        <mxCell id="Grk_tpBVNd8rtP147zdG-26" style="rounded=0;orthogonalLoop=1;jettySize=auto;html=1;endArrow=none;startFill=0;" edge="1" parent="1" source="Grk_tpBVNd8rtP147zdG-5" target="Grk_tpBVNd8rtP147zdG-4">
          <mxGeometry relative="1" as="geometry" />
        </mxCell>
        <mxCell id="Grk_tpBVNd8rtP147zdG-27" style="rounded=0;orthogonalLoop=1;jettySize=auto;html=1;endArrow=none;startFill=0;" edge="1" parent="1" source="Grk_tpBVNd8rtP147zdG-5" target="Grk_tpBVNd8rtP147zdG-6">
          <mxGeometry relative="1" as="geometry" />
        </mxCell>
        <mxCell id="Grk_tpBVNd8rtP147zdG-28" style="rounded=0;orthogonalLoop=1;jettySize=auto;html=1;endArrow=none;startFill=0;" edge="1" parent="1" source="Grk_tpBVNd8rtP147zdG-5" target="Grk_tpBVNd8rtP147zdG-7">
          <mxGeometry relative="1" as="geometry" />
        </mxCell>
        <mxCell id="Grk_tpBVNd8rtP147zdG-5" value="branch" style="rounded=0;whiteSpace=wrap;html=1;fillColor=#f8cecc;strokeColor=#b85450;" vertex="1" parent="1">
          <mxGeometry x="900" y="150" width="120" height="40" as="geometry" />
        </mxCell>
        <mxCell id="Grk_tpBVNd8rtP147zdG-32" style="rounded=0;orthogonalLoop=1;jettySize=auto;html=1;endArrow=none;startFill=0;" edge="1" parent="1" source="Grk_tpBVNd8rtP147zdG-6" target="Grk_tpBVNd8rtP147zdG-11">
          <mxGeometry relative="1" as="geometry" />
        </mxCell>
        <mxCell id="Grk_tpBVNd8rtP147zdG-6" value="if-body" style="rounded=0;whiteSpace=wrap;html=1;fillColor=#f8cecc;strokeColor=#b85450;" vertex="1" parent="1">
          <mxGeometry x="900" y="200" width="120" height="40" as="geometry" />
        </mxCell>
        <mxCell id="Grk_tpBVNd8rtP147zdG-42" style="rounded=0;orthogonalLoop=1;jettySize=auto;html=1;endArrow=none;startFill=0;" edge="1" parent="1" source="Grk_tpBVNd8rtP147zdG-7" target="Grk_tpBVNd8rtP147zdG-41">
          <mxGeometry relative="1" as="geometry" />
        </mxCell>
        <mxCell id="Grk_tpBVNd8rtP147zdG-7" value="else-body" style="rounded=0;whiteSpace=wrap;html=1;fillColor=#f8cecc;strokeColor=#b85450;" vertex="1" parent="1">
          <mxGeometry x="1070" y="200" width="120" height="40" as="geometry" />
        </mxCell>
        <mxCell id="Grk_tpBVNd8rtP147zdG-31" style="rounded=0;orthogonalLoop=1;jettySize=auto;html=1;endArrow=none;startFill=0;" edge="1" parent="1" source="Grk_tpBVNd8rtP147zdG-8" target="Grk_tpBVNd8rtP147zdG-9">
          <mxGeometry relative="1" as="geometry" />
        </mxCell>
        <mxCell id="Grk_tpBVNd8rtP147zdG-8" value="exists" style="rounded=0;whiteSpace=wrap;html=1;fillColor=#ffe6cc;strokeColor=#d79b00;" vertex="1" parent="1">
          <mxGeometry x="630" y="250" width="120" height="40" as="geometry" />
        </mxCell>
        <mxCell id="Grk_tpBVNd8rtP147zdG-9" value="&quot;obtain consent&quot;" style="rounded=0;whiteSpace=wrap;html=1;fillColor=#d5e8d4;strokeColor=#82b366;" vertex="1" parent="1">
          <mxGeometry x="630" y="300" width="120" height="40" as="geometry" />
        </mxCell>
        <mxCell id="Grk_tpBVNd8rtP147zdG-10" value="True" style="rounded=0;whiteSpace=wrap;html=1;fillColor=#d5e8d4;strokeColor=#82b366;" vertex="1" parent="1">
          <mxGeometry x="770" y="250" width="120" height="40" as="geometry" />
        </mxCell>
        <mxCell id="Grk_tpBVNd8rtP147zdG-33" style="rounded=0;orthogonalLoop=1;jettySize=auto;html=1;endArrow=none;startFill=0;" edge="1" parent="1" source="Grk_tpBVNd8rtP147zdG-11" target="Grk_tpBVNd8rtP147zdG-12">
          <mxGeometry relative="1" as="geometry" />
        </mxCell>
        <mxCell id="Grk_tpBVNd8rtP147zdG-39" style="rounded=0;orthogonalLoop=1;jettySize=auto;html=1;endArrow=none;startFill=0;" edge="1" parent="1" source="Grk_tpBVNd8rtP147zdG-11" target="Grk_tpBVNd8rtP147zdG-37">
          <mxGeometry relative="1" as="geometry" />
        </mxCell>
        <mxCell id="Grk_tpBVNd8rtP147zdG-40" style="rounded=0;orthogonalLoop=1;jettySize=auto;html=1;endArrow=none;startFill=0;" edge="1" parent="1" source="Grk_tpBVNd8rtP147zdG-11" target="Grk_tpBVNd8rtP147zdG-38">
          <mxGeometry relative="1" as="geometry" />
        </mxCell>
        <mxCell id="Grk_tpBVNd8rtP147zdG-11" value="branch" style="rounded=0;whiteSpace=wrap;html=1;fillColor=#f8cecc;strokeColor=#b85450;" vertex="1" parent="1">
          <mxGeometry x="900" y="250" width="120" height="40" as="geometry" />
        </mxCell>
        <mxCell id="Grk_tpBVNd8rtP147zdG-34" style="rounded=0;orthogonalLoop=1;jettySize=auto;html=1;endArrow=none;startFill=0;" edge="1" parent="1" source="Grk_tpBVNd8rtP147zdG-12" target="Grk_tpBVNd8rtP147zdG-13">
          <mxGeometry relative="1" as="geometry" />
        </mxCell>
        <mxCell id="Grk_tpBVNd8rtP147zdG-35" style="rounded=0;orthogonalLoop=1;jettySize=auto;html=1;endArrow=none;startFill=0;" edge="1" parent="1" source="Grk_tpBVNd8rtP147zdG-12" target="Grk_tpBVNd8rtP147zdG-15">
          <mxGeometry relative="1" as="geometry" />
        </mxCell>
        <mxCell id="Grk_tpBVNd8rtP147zdG-12" value="condition: equals" style="rounded=0;whiteSpace=wrap;html=1;fillColor=#f8cecc;strokeColor=#b85450;" vertex="1" parent="1">
          <mxGeometry x="770" y="300" width="120" height="40" as="geometry" />
        </mxCell>
        <mxCell id="Grk_tpBVNd8rtP147zdG-36" style="rounded=0;orthogonalLoop=1;jettySize=auto;html=1;endArrow=none;startFill=0;" edge="1" parent="1" source="Grk_tpBVNd8rtP147zdG-13" target="Grk_tpBVNd8rtP147zdG-14">
          <mxGeometry relative="1" as="geometry" />
        </mxCell>
        <mxCell id="Grk_tpBVNd8rtP147zdG-13" value="exists" style="rounded=0;whiteSpace=wrap;html=1;fillColor=#ffe6cc;strokeColor=#d79b00;" vertex="1" parent="1">
          <mxGeometry x="690" y="350" width="120" height="40" as="geometry" />
        </mxCell>
        <mxCell id="Grk_tpBVNd8rtP147zdG-14" value="&quot;provide information&quot;" style="rounded=0;whiteSpace=wrap;html=1;fillColor=#d5e8d4;strokeColor=#82b366;" vertex="1" parent="1">
          <mxGeometry x="690" y="400" width="120" height="40" as="geometry" />
        </mxCell>
        <mxCell id="Grk_tpBVNd8rtP147zdG-15" value="True" style="rounded=0;whiteSpace=wrap;html=1;fillColor=#d5e8d4;strokeColor=#82b366;" vertex="1" parent="1">
          <mxGeometry x="830" y="350" width="120" height="40" as="geometry" />
        </mxCell>
        <mxCell id="Grk_tpBVNd8rtP147zdG-20" value="" style="endArrow=none;dashed=1;html=1;rounded=0;entryX=0;entryY=0.5;entryDx=0;entryDy=0;exitX=0.75;exitY=1;exitDx=0;exitDy=0;strokeColor=#9933FF;strokeWidth=2;startArrow=classic;startFill=1;" edge="1" parent="1" source="qVPcfMORzEuoZqkbXC9u-1" target="Grk_tpBVNd8rtP147zdG-9">
          <mxGeometry width="50" height="50" relative="1" as="geometry">
            <mxPoint x="810" y="570" as="sourcePoint" />
            <mxPoint x="860" y="520" as="targetPoint" />
          </mxGeometry>
        </mxCell>
        <mxCell id="Grk_tpBVNd8rtP147zdG-21" value="" style="endArrow=none;dashed=1;html=1;rounded=0;entryX=0;entryY=0.5;entryDx=0;entryDy=0;exitX=0.75;exitY=1;exitDx=0;exitDy=0;strokeColor=#9933FF;strokeWidth=2;startArrow=classic;startFill=1;" edge="1" parent="1" source="qVPcfMORzEuoZqkbXC9u-12" target="Grk_tpBVNd8rtP147zdG-14">
          <mxGeometry width="50" height="50" relative="1" as="geometry">
            <mxPoint x="550" y="330" as="sourcePoint" />
            <mxPoint x="740" y="480" as="targetPoint" />
          </mxGeometry>
        </mxCell>
        <mxCell id="Grk_tpBVNd8rtP147zdG-50" style="rounded=0;orthogonalLoop=1;jettySize=auto;html=1;endArrow=none;startFill=0;" edge="1" parent="1" source="Grk_tpBVNd8rtP147zdG-37" target="Grk_tpBVNd8rtP147zdG-49">
          <mxGeometry relative="1" as="geometry" />
        </mxCell>
        <mxCell id="Grk_tpBVNd8rtP147zdG-37" value="if-body" style="rounded=0;whiteSpace=wrap;html=1;fillColor=#f8cecc;strokeColor=#b85450;" vertex="1" parent="1">
          <mxGeometry x="970" y="300" width="120" height="40" as="geometry" />
        </mxCell>
        <mxCell id="Grk_tpBVNd8rtP147zdG-46" style="rounded=0;orthogonalLoop=1;jettySize=auto;html=1;endArrow=none;startFill=0;" edge="1" parent="1" source="Grk_tpBVNd8rtP147zdG-38" target="Grk_tpBVNd8rtP147zdG-45">
          <mxGeometry relative="1" as="geometry" />
        </mxCell>
        <mxCell id="Grk_tpBVNd8rtP147zdG-38" value="else-body" style="rounded=0;whiteSpace=wrap;html=1;fillColor=#f8cecc;strokeColor=#b85450;" vertex="1" parent="1">
          <mxGeometry x="1130" y="300" width="120" height="40" as="geometry" />
        </mxCell>
        <mxCell id="Grk_tpBVNd8rtP147zdG-44" style="rounded=0;orthogonalLoop=1;jettySize=auto;html=1;endArrow=none;startFill=0;" edge="1" parent="1" source="Grk_tpBVNd8rtP147zdG-41" target="Grk_tpBVNd8rtP147zdG-43">
          <mxGeometry relative="1" as="geometry" />
        </mxCell>
        <mxCell id="Grk_tpBVNd8rtP147zdG-41" value="return" style="rounded=0;whiteSpace=wrap;html=1;fillColor=#f8cecc;strokeColor=#b85450;" vertex="1" parent="1">
          <mxGeometry x="1280" y="240" width="120" height="40" as="geometry" />
        </mxCell>
        <mxCell id="Grk_tpBVNd8rtP147zdG-43" value="True" style="rounded=0;whiteSpace=wrap;html=1;fillColor=#d5e8d4;strokeColor=#82b366;" vertex="1" parent="1">
          <mxGeometry x="1280" y="300" width="120" height="40" as="geometry" />
        </mxCell>
        <mxCell id="Grk_tpBVNd8rtP147zdG-48" style="rounded=0;orthogonalLoop=1;jettySize=auto;html=1;endArrow=none;startFill=0;" edge="1" parent="1" source="Grk_tpBVNd8rtP147zdG-45" target="Grk_tpBVNd8rtP147zdG-47">
          <mxGeometry relative="1" as="geometry" />
        </mxCell>
        <mxCell id="Grk_tpBVNd8rtP147zdG-45" value="return" style="rounded=0;whiteSpace=wrap;html=1;fillColor=#f8cecc;strokeColor=#b85450;" vertex="1" parent="1">
          <mxGeometry x="1220" y="350" width="120" height="40" as="geometry" />
        </mxCell>
        <mxCell id="Grk_tpBVNd8rtP147zdG-47" value="False" style="rounded=0;whiteSpace=wrap;html=1;fillColor=#d5e8d4;strokeColor=#82b366;" vertex="1" parent="1">
          <mxGeometry x="1220" y="410" width="120" height="40" as="geometry" />
        </mxCell>
        <mxCell id="Grk_tpBVNd8rtP147zdG-56" style="rounded=0;orthogonalLoop=1;jettySize=auto;html=1;endArrow=none;startFill=0;" edge="1" parent="1" source="Grk_tpBVNd8rtP147zdG-49" target="Grk_tpBVNd8rtP147zdG-51">
          <mxGeometry relative="1" as="geometry" />
        </mxCell>
        <mxCell id="Grk_tpBVNd8rtP147zdG-49" value="compare elements" style="rounded=0;whiteSpace=wrap;html=1;fillColor=#ffe6cc;strokeColor=#d79b00;" vertex="1" parent="1">
          <mxGeometry x="970" y="350" width="120" height="40" as="geometry" />
        </mxCell>
        <mxCell id="Grk_tpBVNd8rtP147zdG-59" style="rounded=0;orthogonalLoop=1;jettySize=auto;html=1;endArrow=none;startFill=0;" edge="1" parent="1" source="Grk_tpBVNd8rtP147zdG-51" target="Grk_tpBVNd8rtP147zdG-53">
          <mxGeometry relative="1" as="geometry" />
        </mxCell>
        <mxCell id="Grk_tpBVNd8rtP147zdG-60" style="rounded=0;orthogonalLoop=1;jettySize=auto;html=1;endArrow=none;startFill=0;" edge="1" parent="1" source="Grk_tpBVNd8rtP147zdG-51" target="Grk_tpBVNd8rtP147zdG-55">
          <mxGeometry relative="1" as="geometry" />
        </mxCell>
        <mxCell id="Grk_tpBVNd8rtP147zdG-51" value="branch" style="rounded=0;whiteSpace=wrap;html=1;fillColor=#f8cecc;strokeColor=#b85450;" vertex="1" parent="1">
          <mxGeometry x="970" y="400" width="120" height="40" as="geometry" />
        </mxCell>
        <mxCell id="Grk_tpBVNd8rtP147zdG-69" style="rounded=0;orthogonalLoop=1;jettySize=auto;html=1;endArrow=none;startFill=0;" edge="1" parent="1" source="Grk_tpBVNd8rtP147zdG-52" target="Grk_tpBVNd8rtP147zdG-68">
          <mxGeometry relative="1" as="geometry" />
        </mxCell>
        <mxCell id="Grk_tpBVNd8rtP147zdG-52" value="&lt;div&gt;Case: least common ancestor is root&lt;/div&gt;" style="rounded=1;whiteSpace=wrap;html=1;fillColor=#fff2cc;strokeColor=#d6b656;" vertex="1" parent="1">
          <mxGeometry x="830" y="460" width="120" height="40" as="geometry" />
        </mxCell>
        <mxCell id="Grk_tpBVNd8rtP147zdG-66" style="rounded=0;orthogonalLoop=1;jettySize=auto;html=1;entryX=0.5;entryY=0;entryDx=0;entryDy=0;endArrow=none;startFill=0;" edge="1" parent="1" source="Grk_tpBVNd8rtP147zdG-53" target="Grk_tpBVNd8rtP147zdG-64">
          <mxGeometry relative="1" as="geometry" />
        </mxCell>
        <mxCell id="Grk_tpBVNd8rtP147zdG-53" value="&lt;div&gt;Case: least common ancestor is split &lt;br&gt;&lt;/div&gt;" style="rounded=1;whiteSpace=wrap;html=1;fillColor=#dae8fc;strokeColor=#6c8ebf;" vertex="1" parent="1">
          <mxGeometry x="970" y="460" width="120" height="40" as="geometry" />
        </mxCell>
        <mxCell id="Grk_tpBVNd8rtP147zdG-71" style="rounded=0;orthogonalLoop=1;jettySize=auto;html=1;endArrow=none;startFill=0;" edge="1" parent="1" source="Grk_tpBVNd8rtP147zdG-55" target="Grk_tpBVNd8rtP147zdG-70">
          <mxGeometry relative="1" as="geometry" />
        </mxCell>
        <mxCell id="Grk_tpBVNd8rtP147zdG-55" value="&lt;div&gt;Case: least common ancestor is branch &lt;br&gt;&lt;/div&gt;" style="rounded=1;whiteSpace=wrap;html=1;fillColor=#e1d5e7;strokeColor=#9673a6;" vertex="1" parent="1">
          <mxGeometry x="1110" y="460" width="120" height="40" as="geometry" />
        </mxCell>
        <mxCell id="Grk_tpBVNd8rtP147zdG-58" style="rounded=0;orthogonalLoop=1;jettySize=auto;html=1;endArrow=none;startFill=0;" edge="1" parent="1" source="Grk_tpBVNd8rtP147zdG-51" target="Grk_tpBVNd8rtP147zdG-52">
          <mxGeometry relative="1" as="geometry" />
        </mxCell>
        <mxCell id="Grk_tpBVNd8rtP147zdG-61" value="" style="endArrow=none;dashed=1;html=1;rounded=0;entryX=0;entryY=0.5;entryDx=0;entryDy=0;strokeColor=#9933FF;strokeWidth=2;startArrow=classic;startFill=1;" edge="1" parent="1">
          <mxGeometry width="50" height="50" relative="1" as="geometry">
            <mxPoint x="510" y="120" as="sourcePoint" />
            <mxPoint x="970" y="360" as="targetPoint" />
          </mxGeometry>
        </mxCell>
        <mxCell id="Grk_tpBVNd8rtP147zdG-63" value="" style="whiteSpace=wrap;html=1;fillColor=none;strokeColor=#9933FF;dashed=1;strokeWidth=2;" vertex="1" parent="1">
          <mxGeometry x="180" y="50" width="330" height="170" as="geometry" />
        </mxCell>
        <mxCell id="Grk_tpBVNd8rtP147zdG-67" style="rounded=0;orthogonalLoop=1;jettySize=auto;html=1;endArrow=none;startFill=0;" edge="1" parent="1" source="Grk_tpBVNd8rtP147zdG-64" target="Grk_tpBVNd8rtP147zdG-65">
          <mxGeometry relative="1" as="geometry" />
        </mxCell>
        <mxCell id="Grk_tpBVNd8rtP147zdG-64" value="return" style="rounded=0;whiteSpace=wrap;html=1;fillColor=#f8cecc;strokeColor=#b85450;" vertex="1" parent="1">
          <mxGeometry x="970" y="510" width="120" height="40" as="geometry" />
        </mxCell>
        <mxCell id="Grk_tpBVNd8rtP147zdG-65" value="False" style="rounded=0;whiteSpace=wrap;html=1;fillColor=#d5e8d4;strokeColor=#82b366;" vertex="1" parent="1">
          <mxGeometry x="970" y="560" width="120" height="40" as="geometry" />
        </mxCell>
        <mxCell id="Grk_tpBVNd8rtP147zdG-89" style="rounded=0;orthogonalLoop=1;jettySize=auto;html=1;endArrow=none;startFill=0;" edge="1" parent="1" source="Grk_tpBVNd8rtP147zdG-68" target="Grk_tpBVNd8rtP147zdG-87">
          <mxGeometry relative="1" as="geometry" />
        </mxCell>
        <mxCell id="Grk_tpBVNd8rtP147zdG-90" style="rounded=0;orthogonalLoop=1;jettySize=auto;html=1;endArrow=none;startFill=0;" edge="1" parent="1" source="Grk_tpBVNd8rtP147zdG-68" target="Grk_tpBVNd8rtP147zdG-88">
          <mxGeometry relative="1" as="geometry" />
        </mxCell>
        <mxCell id="Grk_tpBVNd8rtP147zdG-68" value="Iterate for Order" style="rounded=0;whiteSpace=wrap;html=1;fillColor=#ffe6cc;strokeColor=#d79b00;" vertex="1" parent="1">
          <mxGeometry x="830" y="510" width="120" height="40" as="geometry" />
        </mxCell>
        <mxCell id="Grk_tpBVNd8rtP147zdG-107" style="rounded=0;orthogonalLoop=1;jettySize=auto;html=1;endArrow=none;startFill=0;" edge="1" parent="1" source="Grk_tpBVNd8rtP147zdG-70" target="Grk_tpBVNd8rtP147zdG-101">
          <mxGeometry relative="1" as="geometry" />
        </mxCell>
        <mxCell id="Grk_tpBVNd8rtP147zdG-108" style="rounded=0;orthogonalLoop=1;jettySize=auto;html=1;endArrow=none;startFill=0;" edge="1" parent="1" source="Grk_tpBVNd8rtP147zdG-70" target="Grk_tpBVNd8rtP147zdG-102">
          <mxGeometry relative="1" as="geometry" />
        </mxCell>
        <mxCell id="Grk_tpBVNd8rtP147zdG-70" value="Iterate for Order" style="rounded=0;whiteSpace=wrap;html=1;fillColor=#ffe6cc;strokeColor=#d79b00;" vertex="1" parent="1">
          <mxGeometry x="1110" y="510" width="120" height="40" as="geometry" />
        </mxCell>
        <mxCell id="Grk_tpBVNd8rtP147zdG-79" value="AST for data condition directly leads to" style="rounded=0;whiteSpace=wrap;html=1;fillColor=#f8cecc;strokeColor=#b85450;" vertex="1" parent="1">
          <mxGeometry x="1240" y="140" width="140" height="60" as="geometry" />
        </mxCell>
        <mxCell id="Grk_tpBVNd8rtP147zdG-80" value="" style="endArrow=classic;html=1;rounded=0;strokeColor=#9933FF;fillColor=#cce5ff;" edge="1" parent="1">
          <mxGeometry width="50" height="50" relative="1" as="geometry">
            <mxPoint x="990" y="60" as="sourcePoint" />
            <mxPoint x="930" y="100" as="targetPoint" />
          </mxGeometry>
        </mxCell>
        <mxCell id="Grk_tpBVNd8rtP147zdG-81" value="" style="endArrow=classic;html=1;rounded=0;strokeColor=#9933FF;fillColor=#cce5ff;exitX=0;exitY=0.5;exitDx=0;exitDy=0;" edge="1" parent="1" source="Grk_tpBVNd8rtP147zdG-5">
          <mxGeometry width="50" height="50" relative="1" as="geometry">
            <mxPoint x="860" y="160" as="sourcePoint" />
            <mxPoint x="800" y="200" as="targetPoint" />
          </mxGeometry>
        </mxCell>
        <mxCell id="Grk_tpBVNd8rtP147zdG-82" value="" style="endArrow=classic;html=1;rounded=0;strokeColor=#9933FF;fillColor=#cce5ff;exitX=1;exitY=0.5;exitDx=0;exitDy=0;entryX=0;entryY=0.5;entryDx=0;entryDy=0;" edge="1" parent="1" source="Grk_tpBVNd8rtP147zdG-4" target="Grk_tpBVNd8rtP147zdG-6">
          <mxGeometry width="50" height="50" relative="1" as="geometry">
            <mxPoint x="860" y="120" as="sourcePoint" />
            <mxPoint x="770" y="129" as="targetPoint" />
          </mxGeometry>
        </mxCell>
        <mxCell id="Grk_tpBVNd8rtP147zdG-83" value="" style="endArrow=classic;html=1;rounded=0;strokeColor=#9933FF;fillColor=#cce5ff;exitX=0.25;exitY=1;exitDx=0;exitDy=0;entryX=1;entryY=0.5;entryDx=0;entryDy=0;" edge="1" parent="1" source="Grk_tpBVNd8rtP147zdG-11" target="Grk_tpBVNd8rtP147zdG-12">
          <mxGeometry width="50" height="50" relative="1" as="geometry">
            <mxPoint x="910" y="310" as="sourcePoint" />
            <mxPoint x="990" y="310" as="targetPoint" />
          </mxGeometry>
        </mxCell>
        <mxCell id="Grk_tpBVNd8rtP147zdG-85" value="" style="endArrow=classic;html=1;rounded=0;strokeColor=#9933FF;fillColor=#cce5ff;" edge="1" parent="1" source="Grk_tpBVNd8rtP147zdG-12" target="Grk_tpBVNd8rtP147zdG-37">
          <mxGeometry width="50" height="50" relative="1" as="geometry">
            <mxPoint x="940" y="300" as="sourcePoint" />
            <mxPoint x="900" y="330" as="targetPoint" />
          </mxGeometry>
        </mxCell>
        <mxCell id="Grk_tpBVNd8rtP147zdG-86" value="" style="endArrow=classic;html=1;rounded=0;strokeColor=#9933FF;fillColor=#cce5ff;exitX=0;exitY=0.5;exitDx=0;exitDy=0;entryX=0.5;entryY=0;entryDx=0;entryDy=0;" edge="1" parent="1" source="Grk_tpBVNd8rtP147zdG-51" target="Grk_tpBVNd8rtP147zdG-52">
          <mxGeometry width="50" height="50" relative="1" as="geometry">
            <mxPoint x="850" y="439" as="sourcePoint" />
            <mxPoint x="930" y="439" as="targetPoint" />
          </mxGeometry>
        </mxCell>
        <mxCell id="Grk_tpBVNd8rtP147zdG-95" style="rounded=0;orthogonalLoop=1;jettySize=auto;html=1;endArrow=none;startFill=0;" edge="1" parent="1" source="Grk_tpBVNd8rtP147zdG-87" target="Grk_tpBVNd8rtP147zdG-91">
          <mxGeometry relative="1" as="geometry" />
        </mxCell>
        <mxCell id="Grk_tpBVNd8rtP147zdG-87" value="Case: &quot;provide information&quot; is first" style="rounded=1;whiteSpace=wrap;html=1;fillColor=#ffe6cc;strokeColor=#d79b00;" vertex="1" parent="1">
          <mxGeometry x="700" y="560" width="120" height="40" as="geometry" />
        </mxCell>
        <mxCell id="Grk_tpBVNd8rtP147zdG-97" style="rounded=0;orthogonalLoop=1;jettySize=auto;html=1;endArrow=none;startFill=0;" edge="1" parent="1" source="Grk_tpBVNd8rtP147zdG-88" target="Grk_tpBVNd8rtP147zdG-93">
          <mxGeometry relative="1" as="geometry" />
        </mxCell>
        <mxCell id="Grk_tpBVNd8rtP147zdG-88" value="Case: &quot;obtain consent&quot; is first" style="rounded=1;whiteSpace=wrap;html=1;fillColor=#ffe6cc;strokeColor=#d79b00;" vertex="1" parent="1">
          <mxGeometry x="830" y="560" width="120" height="40" as="geometry" />
        </mxCell>
        <mxCell id="Grk_tpBVNd8rtP147zdG-96" style="rounded=0;orthogonalLoop=1;jettySize=auto;html=1;endArrow=none;startFill=0;" edge="1" parent="1" source="Grk_tpBVNd8rtP147zdG-91" target="Grk_tpBVNd8rtP147zdG-92">
          <mxGeometry relative="1" as="geometry" />
        </mxCell>
        <mxCell id="Grk_tpBVNd8rtP147zdG-91" value="return" style="rounded=0;whiteSpace=wrap;html=1;fillColor=#f8cecc;strokeColor=#b85450;" vertex="1" parent="1">
          <mxGeometry x="700" y="610" width="120" height="40" as="geometry" />
        </mxCell>
        <mxCell id="Grk_tpBVNd8rtP147zdG-92" value="True" style="rounded=0;whiteSpace=wrap;html=1;fillColor=#d5e8d4;strokeColor=#82b366;" vertex="1" parent="1">
          <mxGeometry x="700" y="660" width="120" height="40" as="geometry" />
        </mxCell>
        <mxCell id="Grk_tpBVNd8rtP147zdG-98" style="rounded=0;orthogonalLoop=1;jettySize=auto;html=1;endArrow=none;startFill=0;" edge="1" parent="1" source="Grk_tpBVNd8rtP147zdG-93" target="Grk_tpBVNd8rtP147zdG-94">
          <mxGeometry relative="1" as="geometry" />
        </mxCell>
        <mxCell id="Grk_tpBVNd8rtP147zdG-93" value="return" style="rounded=0;whiteSpace=wrap;html=1;fillColor=#f8cecc;strokeColor=#b85450;" vertex="1" parent="1">
          <mxGeometry x="830" y="610" width="120" height="40" as="geometry" />
        </mxCell>
        <mxCell id="Grk_tpBVNd8rtP147zdG-94" value="False" style="rounded=0;whiteSpace=wrap;html=1;fillColor=#d5e8d4;strokeColor=#82b366;" vertex="1" parent="1">
          <mxGeometry x="830" y="660" width="120" height="40" as="geometry" />
        </mxCell>
        <mxCell id="Grk_tpBVNd8rtP147zdG-99" value="" style="endArrow=classic;html=1;rounded=0;strokeColor=#9933FF;fillColor=#cce5ff;exitX=0;exitY=0.5;exitDx=0;exitDy=0;entryX=0.5;entryY=0;entryDx=0;entryDy=0;" edge="1" parent="1" target="Grk_tpBVNd8rtP147zdG-87">
          <mxGeometry width="50" height="50" relative="1" as="geometry">
            <mxPoint x="830" y="530" as="sourcePoint" />
            <mxPoint x="750" y="570" as="targetPoint" />
          </mxGeometry>
        </mxCell>
        <mxCell id="Grk_tpBVNd8rtP147zdG-141" style="rounded=0;orthogonalLoop=1;jettySize=auto;html=1;endArrow=none;startFill=0;" edge="1" parent="1" source="Grk_tpBVNd8rtP147zdG-101" target="Grk_tpBVNd8rtP147zdG-103">
          <mxGeometry relative="1" as="geometry" />
        </mxCell>
        <mxCell id="Grk_tpBVNd8rtP147zdG-101" value="Case: &quot;provide information&quot; is first" style="rounded=1;whiteSpace=wrap;html=1;fillColor=#ffe6cc;strokeColor=#d79b00;" vertex="1" parent="1">
          <mxGeometry x="1110" y="560" width="120" height="40" as="geometry" />
        </mxCell>
        <mxCell id="Grk_tpBVNd8rtP147zdG-138" style="rounded=0;orthogonalLoop=1;jettySize=auto;html=1;endArrow=none;startFill=0;" edge="1" parent="1" source="Grk_tpBVNd8rtP147zdG-102" target="Grk_tpBVNd8rtP147zdG-105">
          <mxGeometry relative="1" as="geometry" />
        </mxCell>
        <mxCell id="Grk_tpBVNd8rtP147zdG-102" value="Case: &quot;obtain consent&quot; is first" style="rounded=1;whiteSpace=wrap;html=1;fillColor=#ffe6cc;strokeColor=#d79b00;" vertex="1" parent="1">
          <mxGeometry x="1240" y="560" width="120" height="40" as="geometry" />
        </mxCell>
        <mxCell id="Grk_tpBVNd8rtP147zdG-140" style="rounded=0;orthogonalLoop=1;jettySize=auto;html=1;endArrow=none;startFill=0;" edge="1" parent="1" source="Grk_tpBVNd8rtP147zdG-103" target="Grk_tpBVNd8rtP147zdG-104">
          <mxGeometry relative="1" as="geometry" />
        </mxCell>
        <mxCell id="Grk_tpBVNd8rtP147zdG-103" value="return" style="rounded=0;whiteSpace=wrap;html=1;fillColor=#f8cecc;strokeColor=#b85450;" vertex="1" parent="1">
          <mxGeometry x="1110" y="610" width="120" height="40" as="geometry" />
        </mxCell>
        <mxCell id="Grk_tpBVNd8rtP147zdG-104" value="True" style="rounded=0;whiteSpace=wrap;html=1;fillColor=#d5e8d4;strokeColor=#82b366;" vertex="1" parent="1">
          <mxGeometry x="1110" y="660" width="120" height="40" as="geometry" />
        </mxCell>
        <mxCell id="Grk_tpBVNd8rtP147zdG-139" style="rounded=0;orthogonalLoop=1;jettySize=auto;html=1;endArrow=none;startFill=0;" edge="1" parent="1" source="Grk_tpBVNd8rtP147zdG-105" target="Grk_tpBVNd8rtP147zdG-106">
          <mxGeometry relative="1" as="geometry" />
        </mxCell>
        <mxCell id="Grk_tpBVNd8rtP147zdG-105" value="return" style="rounded=0;whiteSpace=wrap;html=1;fillColor=#f8cecc;strokeColor=#b85450;" vertex="1" parent="1">
          <mxGeometry x="1240" y="610" width="120" height="40" as="geometry" />
        </mxCell>
        <mxCell id="Grk_tpBVNd8rtP147zdG-106" value="False" style="rounded=0;whiteSpace=wrap;html=1;fillColor=#d5e8d4;strokeColor=#82b366;" vertex="1" parent="1">
          <mxGeometry x="1240" y="660" width="120" height="40" as="geometry" />
        </mxCell>
        <mxCell id="Grk_tpBVNd8rtP147zdG-109" value="" style="whiteSpace=wrap;html=1;fillColor=none;strokeColor=#9933FF;dashed=1;strokeWidth=4;" vertex="1" parent="1">
          <mxGeometry x="700" y="660" width="120" height="40" as="geometry" />
        </mxCell>
        <mxCell id="Grk_tpBVNd8rtP147zdG-111" value="AST for R1" style="text;html=1;align=center;verticalAlign=middle;whiteSpace=wrap;rounded=0;fontSize=14;fontStyle=1" vertex="1" parent="1">
          <mxGeometry x="720" y="50" width="150" height="40" as="geometry" />
        </mxCell>
        <mxCell id="Grk_tpBVNd8rtP147zdG-112" value="Process Tree for Running Example" style="text;html=1;align=center;verticalAlign=middle;whiteSpace=wrap;rounded=0;fontSize=14;fontStyle=1" vertex="1" parent="1">
          <mxGeometry x="20" y="50" width="150" height="40" as="geometry" />
        </mxCell>
        <mxCell id="Grk_tpBVNd8rtP147zdG-113" value="Requirements as ASTs (code form)" style="text;html=1;align=center;verticalAlign=middle;whiteSpace=wrap;rounded=0;fontSize=14;fontStyle=1" vertex="1" parent="1">
          <mxGeometry y="520" width="150" height="40" as="geometry" />
        </mxCell>
        <mxCell id="Grk_tpBVNd8rtP147zdG-114" value="&lt;pre&gt;precedence(&#39;obtain consent&#39;, &#39;provide information&#39;) and &lt;br&gt;data_condition_directly_leads_to(&#39;not data.consented&#39;, &#39;terminate&#39;)&lt;/pre&gt;" style="text;whiteSpace=wrap;html=1;" vertex="1" parent="1">
          <mxGeometry x="50" y="555" width="560" height="50" as="geometry" />
        </mxCell>
        <mxCell id="Grk_tpBVNd8rtP147zdG-115" value="R1" style="text;html=1;align=center;verticalAlign=middle;whiteSpace=wrap;rounded=0;fontSize=14;fontStyle=1" vertex="1" parent="1">
          <mxGeometry y="570" width="50" height="40" as="geometry" />
        </mxCell>
        <mxCell id="Grk_tpBVNd8rtP147zdG-117" value="&lt;pre&gt;timed_alternative(&#39;monitor patient&#39;, &#39;assess donor&#39;, 900) and &lt;br&gt;executed_by (&#39;assess donor&#39;, &#39;physician&#39;)&lt;/pre&gt;" style="text;whiteSpace=wrap;html=1;" vertex="1" parent="1">
          <mxGeometry x="50" y="595" width="560" height="50" as="geometry" />
        </mxCell>
        <mxCell id="Grk_tpBVNd8rtP147zdG-118" value="R2" style="text;html=1;align=center;verticalAlign=middle;whiteSpace=wrap;rounded=0;fontSize=14;fontStyle=1" vertex="1" parent="1">
          <mxGeometry y="610" width="50" height="40" as="geometry" />
        </mxCell>
        <mxCell id="Grk_tpBVNd8rtP147zdG-119" value="&lt;pre&gt;executed_by_return(&#39;prepare for venepuncture&#39;) ==&lt;br&gt;executed_by_return(&#39;venepuncture&#39;)&lt;/pre&gt;" style="text;whiteSpace=wrap;html=1;" vertex="1" parent="1">
          <mxGeometry x="50" y="640" width="560" height="50" as="geometry" />
        </mxCell>
        <mxCell id="Grk_tpBVNd8rtP147zdG-120" value="R3" style="text;html=1;align=center;verticalAlign=middle;whiteSpace=wrap;rounded=0;fontSize=14;fontStyle=1" vertex="1" parent="1">
          <mxGeometry y="655" width="50" height="40" as="geometry" />
        </mxCell>
        <mxCell id="Grk_tpBVNd8rtP147zdG-121" value="&lt;pre&gt;activity_receives(&#39;conduct interview and questionnaire&#39;, &#39;assessment_status&#39;) and &lt;br&gt;activity_receives(&#39;direct questions&#39;, &#39;assessment_status&#39;)&lt;/pre&gt;" style="text;whiteSpace=wrap;html=1;" vertex="1" parent="1">
          <mxGeometry x="50" y="680" width="560" height="50" as="geometry" />
        </mxCell>
        <mxCell id="Grk_tpBVNd8rtP147zdG-122" value="R4" style="text;html=1;align=center;verticalAlign=middle;whiteSpace=wrap;rounded=0;fontSize=14;fontStyle=1" vertex="1" parent="1">
          <mxGeometry y="695" width="50" height="40" as="geometry" />
        </mxCell>
        <mxCell id="Grk_tpBVNd8rtP147zdG-123" value="control sequences" style="rounded=0;whiteSpace=wrap;html=1;fillColor=#f8cecc;strokeColor=#b85450;" vertex="1" parent="1">
          <mxGeometry x="140" y="240" width="120" height="40" as="geometry" />
        </mxCell>
        <mxCell id="Grk_tpBVNd8rtP147zdG-124" value="Requirement Types / Verification Methods" style="rounded=0;whiteSpace=wrap;html=1;fillColor=#ffe6cc;strokeColor=#d79b00;" vertex="1" parent="1">
          <mxGeometry x="140" y="290" width="120" height="40" as="geometry" />
        </mxCell>
        <mxCell id="Grk_tpBVNd8rtP147zdG-125" value="&amp;nbsp;data objects (boolean, string, etc)" style="rounded=0;whiteSpace=wrap;html=1;fillColor=#d5e8d4;strokeColor=#82b366;" vertex="1" parent="1">
          <mxGeometry x="140" y="340" width="120" height="40" as="geometry" />
        </mxCell>
        <mxCell id="Grk_tpBVNd8rtP147zdG-126" value="Legend" style="text;html=1;align=center;verticalAlign=middle;whiteSpace=wrap;rounded=0;fontSize=14;fontStyle=1" vertex="1" parent="1">
          <mxGeometry x="50" y="210" width="150" height="30" as="geometry" />
        </mxCell>
        <mxCell id="Grk_tpBVNd8rtP147zdG-127" value="Least Common Ancestor is Root" style="whiteSpace=wrap;html=1;rounded=0;shadow=1;labelBackgroundColor=none;strokeWidth=2;fontFamily=Verdana;fontSize=12;align=center;glass=0;fillColor=#fff2cc;strokeColor=#d6b656;" vertex="1" parent="1">
          <mxGeometry x="10" y="240" width="110" height="50" as="geometry" />
        </mxCell>
        <mxCell id="Grk_tpBVNd8rtP147zdG-128" value="Least Common Ancestor is a branch" style="whiteSpace=wrap;html=1;rounded=0;shadow=1;labelBackgroundColor=none;strokeWidth=2;fontFamily=Verdana;fontSize=12;align=center;glass=0;fillColor=#e1d5e7;strokeColor=#9673a6;" vertex="1" parent="1">
          <mxGeometry x="10" y="360" width="110" height="50" as="geometry" />
        </mxCell>
        <mxCell id="Grk_tpBVNd8rtP147zdG-129" value="&amp;nbsp;Least Common Ancestor is a split" style="whiteSpace=wrap;html=1;rounded=0;shadow=1;labelBackgroundColor=none;strokeWidth=2;fontFamily=Verdana;fontSize=12;align=center;glass=0;fillColor=#dae8fc;strokeColor=#6c8ebf;" vertex="1" parent="1">
          <mxGeometry x="10" y="300" width="110" height="50" as="geometry" />
        </mxCell>
        <mxCell id="Grk_tpBVNd8rtP147zdG-130" value="Branch Node" style="whiteSpace=wrap;html=1;rounded=1;shadow=1;labelBackgroundColor=none;strokeWidth=1;fontFamily=Verdana;fontSize=12;align=center;" vertex="1" parent="1">
          <mxGeometry x="10" y="420" width="110" height="40" as="geometry" />
        </mxCell>
        <mxCell id="Grk_tpBVNd8rtP147zdG-131" value="Leaf Node" style="whiteSpace=wrap;html=1;rounded=0;shadow=1;labelBackgroundColor=none;strokeWidth=1;fontFamily=Verdana;fontSize=12;align=center;" vertex="1" parent="1">
          <mxGeometry x="10" y="470" width="110" height="40" as="geometry" />
        </mxCell>
        <mxCell id="Grk_tpBVNd8rtP147zdG-133" value="" style="endArrow=classic;html=1;rounded=0;strokeColor=#9933FF;fillColor=#cce5ff;" edge="1" parent="1">
          <mxGeometry width="50" height="50" relative="1" as="geometry">
            <mxPoint x="230" y="418.82" as="sourcePoint" />
            <mxPoint x="150" y="418.82" as="targetPoint" />
          </mxGeometry>
        </mxCell>
        <mxCell id="Grk_tpBVNd8rtP147zdG-134" value="Tree Traversal" style="edgeLabel;html=1;align=center;verticalAlign=middle;resizable=0;points=[];" vertex="1" connectable="0" parent="Grk_tpBVNd8rtP147zdG-133">
          <mxGeometry x="-0.3162" y="-1" relative="1" as="geometry">
            <mxPoint x="-13" y="-18" as="offset" />
          </mxGeometry>
        </mxCell>
        <mxCell id="Grk_tpBVNd8rtP147zdG-135" value="" style="endArrow=none;dashed=1;html=1;rounded=0;exitX=0.75;exitY=1;exitDx=0;exitDy=0;strokeColor=#9933FF;strokeWidth=2;startArrow=classic;startFill=1;" edge="1" parent="1">
          <mxGeometry width="50" height="50" relative="1" as="geometry">
            <mxPoint x="150" y="448.82" as="sourcePoint" />
            <mxPoint x="230" y="449" as="targetPoint" />
          </mxGeometry>
        </mxCell>
        <mxCell id="Grk_tpBVNd8rtP147zdG-137" value="Mapping" style="edgeLabel;html=1;align=center;verticalAlign=middle;resizable=0;points=[];" vertex="1" connectable="0" parent="1">
          <mxGeometry x="210.0011764705883" y="429.99999999999994" as="geometry">
            <mxPoint x="-26" as="offset" />
          </mxGeometry>
        </mxCell>
      </root>
    </mxGraphModel>
  </diagram>
</mxfile>
